<?xml version="1.0" encoding="UTF-8" standalone="no"?>
<!-- Generator: Adobe Illustrator 16.0.0, SVG Export Plug-In . SVG Version: 6.00 Build 0)  -->

<svg
   version="1.1"
   id="Capa_1"
   x="0px"
   y="0px"
   width="31.479px"
   height="31.479px"
   viewBox="0 0 31.479 31.479"
   style="enable-background:new 0 0 31.479 31.479;"
   xml:space="preserve"
   sodipodi:docname="func_hidden.svg"
   inkscape:export-filename="/Users/matt/Downloads/linux-dual-boot/themes/refind-theme-grey/icons/func_hidden.png"
   inkscape:export-xdpi="195.17999"
   inkscape:export-ydpi="195.17999"
   inkscape:version="1.1.1 (c3084ef, 2021-09-22)"
   xmlns:inkscape="http://www.inkscape.org/namespaces/inkscape"
   xmlns:sodipodi="http://sodipodi.sourceforge.net/DTD/sodipodi-0.dtd"
   xmlns="http://www.w3.org/2000/svg"
   xmlns:svg="http://www.w3.org/2000/svg"><defs
   id="defs1677" /><sodipodi:namedview
   id="namedview1675"
   pagecolor="#ffffff"
   bordercolor="#111111"
   borderopacity="1"
   inkscape:pageshadow="0"
   inkscape:pageopacity="0"
   inkscape:pagecheckerboard="1"
   showgrid="false"
   inkscape:zoom="15.184726"
   inkscape:cx="16.826119"
   inkscape:cy="16.463912"
   inkscape:window-width="788"
   inkscape:window-height="748"
   inkscape:window-x="641"
   inkscape:window-y="26"
   inkscape:window-maximized="0"
   inkscape:current-layer="g1642" />
<g
   id="g1642">
	<g
   id="g1640"
   style="fill:#737373;fill-opacity:1">
		<path
   d="M8.476,17.737l2.385,1.408l-3.104-6.16l-6.949,0.207l2.244,1.331L0,20.172c0,0,2.451,4.442,4.122,7.094    c0.683,1.084,1.597,1.698,2.474,1.698h8.924V22.53l-9.693-0.003L8.476,17.737z"
   id="path1634"
   style="fill:#737373;fill-opacity:1" />
		<path
   d="M16.691,10.466l6.763,0.405l3.243-6.147l-2.264,1.297L21.02,0.582c0,0-5.073-0.058-8.202,0.093    c-1.28,0.062-2.266,0.554-2.697,1.315L5.724,9.757l5.599,3.17l4.778-8.435l2.863,4.665L16.691,10.466z"
   id="path1636"
   style="fill:#737373;fill-opacity:1" />
		<path
   d="M31.23,18.314l-4.245-7.85l-5.659,3.062l4.607,8.527l-5.473-0.053l0.082-2.479l-3.92,5.373l3.487,6.014l0.103-2.606    l6.422-0.003c0,0,2.742-4.27,4.277-7C31.542,20.182,31.647,19.087,31.23,18.314z"
   id="path1638"
   style="fill:#737373;fill-opacity:1" />
	</g>
</g>
<g
   id="g1644">
</g>
<g
   id="g1646">
</g>
<g
   id="g1648">
</g>
<g
   id="g1650">
</g>
<g
   id="g1652">
</g>
<g
   id="g1654">
</g>
<g
   id="g1656">
</g>
<g
   id="g1658">
</g>
<g
   id="g1660">
</g>
<g
   id="g1662">
</g>
<g
   id="g1664">
</g>
<g
   id="g1666">
</g>
<g
   id="g1668">
</g>
<g
   id="g1670">
</g>
<g
   id="g1672">
</g>
</svg>
