<?xml version="1.0" encoding="UTF-8" standalone="no"?>
<!-- Generator: Adobe Illustrator 19.0.0, SVG Export Plug-In . SVG Version: 6.00 Build 0)  -->

<svg
   version="1.1"
   id="Capa_1"
   x="0px"
   y="0px"
   viewBox="0 0 64.000001 64.000001"
   xml:space="preserve"
   sodipodi:docname="func_reset.svg"
   inkscape:export-filename="/Users/matt/Downloads/linux-dual-boot/themes/refind-theme-grey/icons/func_reset.png"
   inkscape:export-xdpi="12.51"
   inkscape:export-ydpi="12.51"
   inkscape:version="1.1.1 (c3084ef, 2021-09-22)"
   width="64"
   height="64"
   xmlns:inkscape="http://www.inkscape.org/namespaces/inkscape"
   xmlns:sodipodi="http://sodipodi.sourceforge.net/DTD/sodipodi-0.dtd"
   xmlns="http://www.w3.org/2000/svg"
   xmlns:svg="http://www.w3.org/2000/svg"><defs
   id="defs1718" /><sodipodi:namedview
   id="namedview1716"
   pagecolor="#ffffff"
   bordercolor="#111111"
   borderopacity="1"
   inkscape:pageshadow="0"
   inkscape:pageopacity="0"
   inkscape:pagecheckerboard="1"
   showgrid="false"
   inkscape:zoom="0.97305574"
   inkscape:cx="71.938325"
   inkscape:cy="245.618"
   inkscape:window-width="1280"
   inkscape:window-height="774"
   inkscape:window-x="0"
   inkscape:window-y="26"
   inkscape:window-maximized="0"
   inkscape:current-layer="g1681" />
<g
   id="g1683">
	<g
   id="g1681">
		<path
   d="m 16.550951,33.400549 c -0.244282,-2.117109 -0.04071,-4.160933 0.512991,-6.050046 1.840256,-6.278042 7.613449,-10.894968 14.461482,-10.976395 v -4.103934 c 0,-0.227996 0.284996,-0.350137 0.472278,-0.211711 l 8.444007,6.204757 c 0.138427,0.105856 0.138427,0.317567 0,0.41528 l -8.435864,6.204757 c -0.195425,0.138426 -0.472278,0.01629 -0.472278,-0.211711 v -4.095791 c -4.502928,0.07328 -8.346295,2.849954 -9.999268,6.774748 -0.62699,1.481976 -0.944556,3.118664 -0.854986,4.83678 0.122141,2.36139 1.009698,4.535498 2.410247,6.294327 0.749131,0.936413 0.569991,2.304391 -0.398994,3.012809 -0.920128,0.675846 -2.206679,0.488563 -2.915096,-0.407137 -1.734401,-2.165965 -2.890668,-4.804208 -3.224519,-7.686733 z M 40.930273,25.51839 c 1.408692,1.750686 2.296249,3.932937 2.410247,6.294327 0.08957,1.726258 -0.236139,3.362946 -0.854986,4.83678 -1.652974,3.924794 -5.496341,6.709606 -9.999268,6.774748 v -4.095792 c 0,-0.227996 -0.284996,-0.350137 -0.472278,-0.21171 L 23.569981,45.3215 c -0.138427,0.105855 -0.138427,0.317566 0,0.415279 l 8.435864,6.204757 c 0.195425,0.138427 0.472278,0.01629 0.472278,-0.21171 v -4.103934 c 6.848033,-0.07328 12.629369,-4.690211 14.461482,-10.976395 0.553705,-1.889113 0.749131,-3.932937 0.512992,-6.050046 -0.325709,-2.882525 -1.481977,-5.520768 -3.216377,-7.686734 -0.71656,-0.8957 -1.994968,-1.082982 -2.915096,-0.407136 -0.960842,0.708417 -1.139982,2.076395 -0.390851,3.012809 z"
   id="path1679"
   style="fill:#737373;fill-opacity:1;stroke-width:0.0814273" />
	</g>
</g>
<g
   id="g1685">
</g>
<g
   id="g1687">
</g>
<g
   id="g1689">
</g>
<g
   id="g1691">
</g>
<g
   id="g1693">
</g>
<g
   id="g1695">
</g>
<g
   id="g1697">
</g>
<g
   id="g1699">
</g>
<g
   id="g1701">
</g>
<g
   id="g1703">
</g>
<g
   id="g1705">
</g>
<g
   id="g1707">
</g>
<g
   id="g1709">
</g>
<g
   id="g1711">
</g>
<g
   id="g1713">
</g>
</svg>
