<?xml version="1.0" encoding="UTF-8" standalone="no"?>
<!-- Generator: Adobe Illustrator 19.0.0, SVG Export Plug-In . SVG Version: 6.00 Build 0)  -->

<svg
   version="1.1"
   id="Capa_1"
   x="0px"
   y="0px"
   viewBox="0 0 489.888 489.888"
   style="enable-background:new 0 0 489.888 489.888;"
   xml:space="preserve"
   sodipodi:docname="func_shutdown.svg"
   inkscape:export-filename="/Users/matt/Downloads/linux-dual-boot/themes/refind-theme-grey/icons/func_shutdown.png"
   inkscape:export-xdpi="12.54"
   inkscape:export-ydpi="12.54"
   inkscape:version="1.1.1 (c3084ef, 2021-09-22)"
   xmlns:inkscape="http://www.inkscape.org/namespaces/inkscape"
   xmlns:sodipodi="http://sodipodi.sourceforge.net/DTD/sodipodi-0.dtd"
   xmlns="http://www.w3.org/2000/svg"
   xmlns:svg="http://www.w3.org/2000/svg"><defs
   id="defs41" /><sodipodi:namedview
   id="namedview39"
   pagecolor="#ffffff"
   bordercolor="#666666"
   borderopacity="1.0"
   inkscape:pageshadow="2"
   inkscape:pageopacity="0.0"
   inkscape:pagecheckerboard="0"
   showgrid="false"
   inkscape:zoom="1.0757561"
   inkscape:cx="72.507142"
   inkscape:cy="244.47921"
   inkscape:window-width="1280"
   inkscape:window-height="800"
   inkscape:window-x="0"
   inkscape:window-y="0"
   inkscape:window-maximized="0"
   inkscape:current-layer="Capa_1" />
<g
   id="g6"
   transform="translate(2.0742006e-5)"
   style="fill:#737373;fill-opacity:1">
	<g
   id="g4"
   style="fill:#737373;fill-opacity:1">
		<path
   d="m 25.383,290.5 c -7.2,-77.5 25.9,-147.7 80.8,-192.3 21.4,-17.4 53.4,-2.5 53.4,25 v 0 c 0,10.1 -4.8,19.4 -12.6,25.7 -38.9,31.7 -62.3,81.7 -56.6,136.9 7.4,71.9 65,130.1 136.8,138.1 93.7,10.5 173.3,-62.9 173.3,-154.5 0,-48.6 -22.5,-92.1 -57.6,-120.6 -7.8,-6.3 -12.5,-15.6 -12.5,-25.6 v 0 c 0,-27.2 31.5,-42.6 52.7,-25.6 50.2,40.5 82.4,102.4 82.4,171.8 0,126.9 -107.8,229.2 -236.7,219.9 -106.6,-7.5 -193.5,-92.4 -203.4,-198.8 z M 244.883,0 c -18,0 -32.5,14.6 -32.5,32.5 v 149.7 c 0,18 14.6,32.5 32.5,32.5 17.9,0 32.5,-14.6 32.5,-32.5 V 32.5 c 0,-17.9 -14.5,-32.5 -32.5,-32.5 z"
   id="path2"
   style="fill:#737373;fill-opacity:1" />
	</g>
</g>
<g
   id="g8">
</g>
<g
   id="g10">
</g>
<g
   id="g12">
</g>
<g
   id="g14">
</g>
<g
   id="g16">
</g>
<g
   id="g18">
</g>
<g
   id="g20">
</g>
<g
   id="g22">
</g>
<g
   id="g24">
</g>
<g
   id="g26">
</g>
<g
   id="g28">
</g>
<g
   id="g30">
</g>
<g
   id="g32">
</g>
<g
   id="g34">
</g>
<g
   id="g36">
</g>
</svg>
