<?xml version="1.0" encoding="UTF-8" standalone="no"?>
<!-- Generator: Adobe Illustrator 16.0.0, SVG Export Plug-In . SVG Version: 6.00 Build 0)  -->

<svg
   version="1.1"
   id="Capa_1"
   x="0px"
   y="0px"
   width="64"
   height="64"
   viewBox="0 0 64 64"
   xml:space="preserve"
   sodipodi:docname="func_exit.svg"
   inkscape:export-filename="/Users/matt/Downloads/linux-dual-boot/themes/refind-theme-grey/icons/func_exit.png"
   inkscape:export-xdpi="13.39"
   inkscape:export-ydpi="13.39"
   inkscape:version="1.1.1 (c3084ef, 2021-09-22)"
   xmlns:inkscape="http://www.inkscape.org/namespaces/inkscape"
   xmlns:sodipodi="http://sodipodi.sourceforge.net/DTD/sodipodi-0.dtd"
   xmlns="http://www.w3.org/2000/svg"
   xmlns:svg="http://www.w3.org/2000/svg"><defs
   id="defs1443" /><sodipodi:namedview
   id="namedview1441"
   pagecolor="#ffffff"
   bordercolor="#111111"
   borderopacity="1"
   inkscape:pageshadow="0"
   inkscape:pageopacity="0"
   inkscape:pagecheckerboard="1"
   showgrid="false"
   inkscape:zoom="1.7472767"
   inkscape:cx="53.798005"
   inkscape:cy="167.11721"
   inkscape:window-width="1280"
   inkscape:window-height="774"
   inkscape:window-x="0"
   inkscape:window-y="26"
   inkscape:window-maximized="0"
   inkscape:current-layer="Capa_1" />
<g
   id="g1408"
   transform="matrix(0.08714597,0,0,0.08714597,12,12)">
	<g
   id="exit-to-app">
		<path
   d="m 181.05,321.3 35.7,35.7 127.5,-127.5 -127.5,-127.5 -35.7,35.7 66.3,66.3 H 0 v 51 H 247.35 Z M 408,0 H 51 C 22.95,0 0,22.95 0,51 V 153 H 51 V 51 H 408 V 408 H 51 V 306 H 0 v 102 c 0,28.05 22.95,51 51,51 h 357 c 28.05,0 51,-22.95 51,-51 V 51 C 459,22.95 436.05,0 408,0 Z"
   id="path1405"
   style="fill:#737373;fill-opacity:1" />
	</g>
</g>
<g
   id="g1410">
</g>
<g
   id="g1412">
</g>
<g
   id="g1414">
</g>
<g
   id="g1416">
</g>
<g
   id="g1418">
</g>
<g
   id="g1420">
</g>
<g
   id="g1422">
</g>
<g
   id="g1424">
</g>
<g
   id="g1426">
</g>
<g
   id="g1428">
</g>
<g
   id="g1430">
</g>
<g
   id="g1432">
</g>
<g
   id="g1434">
</g>
<g
   id="g1436">
</g>
<g
   id="g1438">
</g>
</svg>
