<?xml version="1.0" encoding="UTF-8" standalone="no"?>
<!-- Generator: Adobe Illustrator 16.0.0, SVG Export Plug-In . SVG Version: 6.00 Build 0)  -->

<svg
   version="1.1"
   id="Capa_1"
   x="0px"
   y="0px"
   width="64"
   height="64"
   viewBox="0 0 64 64"
   xml:space="preserve"
   sodipodi:docname="func_hidden.svg"
   inkscape:export-filename="/Users/matt/Downloads/linux-dual-boot/themes/refind-theme-grey/icons/func_hidden.png"
   inkscape:export-xdpi="195.17999"
   inkscape:export-ydpi="195.17999"
   inkscape:version="1.1.1 (c3084ef, 2021-09-22)"
   xmlns:inkscape="http://www.inkscape.org/namespaces/inkscape"
   xmlns:sodipodi="http://sodipodi.sourceforge.net/DTD/sodipodi-0.dtd"
   xmlns="http://www.w3.org/2000/svg"
   xmlns:svg="http://www.w3.org/2000/svg"><defs
   id="defs1677" /><sodipodi:namedview
   id="namedview1675"
   pagecolor="#ffffff"
   bordercolor="#111111"
   borderopacity="1"
   inkscape:pageshadow="0"
   inkscape:pageopacity="0"
   inkscape:pagecheckerboard="1"
   showgrid="false"
   inkscape:zoom="9.9771612"
   inkscape:cx="34.97989"
   inkscape:cy="38.187215"
   inkscape:window-width="1280"
   inkscape:window-height="774"
   inkscape:window-x="0"
   inkscape:window-y="26"
   inkscape:window-maximized="0"
   inkscape:current-layer="g1642" />
<g
   id="g1642">
	<g
   id="g1640"
   style="fill:#737373;fill-opacity:1"
   transform="matrix(1.2706647,0,0,1.2706647,12.000001,12.00034)">
		<path
   d="m 8.476,17.737 2.385,1.408 -3.104,-6.16 -6.949,0.207 2.244,1.331 L 0,20.172 c 0,0 2.451,4.442 4.122,7.094 0.683,1.084 1.597,1.698 2.474,1.698 H 15.52 V 22.53 L 5.827,22.527 Z"
   id="path1634"
   style="fill:#737373;fill-opacity:1" />
		<path
   d="m 16.691,10.466 6.763,0.405 3.243,-6.147 -2.264,1.297 -3.413,-5.439 c 0,0 -5.073,-0.058 -8.202,0.093 -1.28,0.062 -2.266,0.554 -2.697,1.315 l -4.397,7.767 5.599,3.17 4.778,-8.435 2.863,4.665 z"
   id="path1636"
   style="fill:#737373;fill-opacity:1" />
		<path
   d="m 31.23,18.314 -4.245,-7.85 -5.659,3.062 4.607,8.527 L 20.46,22 l 0.082,-2.479 -3.92,5.373 3.487,6.014 0.103,-2.606 6.422,-0.003 c 0,0 2.742,-4.27 4.277,-7 0.631,-1.117 0.736,-2.212 0.319,-2.985 z"
   id="path1638"
   style="fill:#737373;fill-opacity:1" />
	</g>
</g>
<g
   id="g1644">
</g>
<g
   id="g1646">
</g>
<g
   id="g1648">
</g>
<g
   id="g1650">
</g>
<g
   id="g1652">
</g>
<g
   id="g1654">
</g>
<g
   id="g1656">
</g>
<g
   id="g1658">
</g>
<g
   id="g1660">
</g>
<g
   id="g1662">
</g>
<g
   id="g1664">
</g>
<g
   id="g1666">
</g>
<g
   id="g1668">
</g>
<g
   id="g1670">
</g>
<g
   id="g1672">
</g>
</svg>
