<?xml version="1.0" encoding="UTF-8" standalone="no"?>
<svg
   width="128"
   height="128"
   viewBox="0 0 128 128"
   version="1.1"
   xml:space="preserve"
   style="clip-rule:evenodd;fill-rule:evenodd;stroke-linejoin:round;stroke-miterlimit:1.41421"
   id="svg5"
   sodipodi:docname="os_elementary.svg"
   inkscape:export-filename="/Users/matt/p/dualboot/themes/grey-apple/icons/os_elementary.png"
   inkscape:export-xdpi="96"
   inkscape:export-ydpi="96"
   inkscape:version="1.1.1 (c3084ef, 2021-09-22)"
   xmlns:inkscape="http://www.inkscape.org/namespaces/inkscape"
   xmlns:sodipodi="http://sodipodi.sourceforge.net/DTD/sodipodi-0.dtd"
   xmlns="http://www.w3.org/2000/svg"
   xmlns:svg="http://www.w3.org/2000/svg"><defs
   id="defs9" /><sodipodi:namedview
   id="namedview7"
   pagecolor="#ffffff"
   bordercolor="#111111"
   borderopacity="1"
   inkscape:pageshadow="0"
   inkscape:pageopacity="0"
   inkscape:pagecheckerboard="1"
   showgrid="false"
   inkscape:zoom="1.7892652"
   inkscape:cx="87.186628"
   inkscape:cy="70.419969"
   inkscape:window-width="1280"
   inkscape:window-height="800"
   inkscape:window-x="0"
   inkscape:window-y="0"
   inkscape:window-maximized="0"
   inkscape:current-layer="path2993"
   width="160px" />
    <g
   id="path2993"
   transform="matrix(1.33333,0,0,1.33333,-133.333,-133.333)">
        <path
   d="m 148.00013,118.00005 c -16.56855,0 -30.00008,13.43153 -30.00008,30.00008 0,16.56854 13.43153,30.00007 30.00008,30.00007 16.56854,0 30.00007,-13.43153 30.00007,-30.00007 0,-16.56855 -13.43153,-30.00008 -30.00007,-30.00008 z m 0,2.50001 c 12.59673,0 23.21545,8.46992 26.47196,20.02505 -2.80481,5.78521 -6.79591,10.99402 -11.65633,15.20313 -2.3348,2.02201 -4.88411,3.82462 -7.70002,5.09382 -2.8159,1.2692 -5.91321,1.9893 -8.99682,1.8125 -2.31691,-0.1329 -4.60551,-0.7783 -6.63441,-1.9031 5.37701,-2.91371 10.22862,-6.79842 14.20003,-11.45003 2.6067,-3.05331 4.88741,-6.52322 5.76562,-10.44073 0.4391,-1.9587 0.5135,-4.01001 0.1031,-5.97501 -0.41031,-1.96491 -1.31881,-3.83741 -2.69371,-5.30001 -1.34321,-1.42881 -3.10651,-2.44091 -4.99691,-2.96251 -1.89041,-0.52151 -3.90221,-0.56191 -5.83122,-0.2093 -3.85821,0.705 -7.30292,2.94741 -10.06573,5.73121 -4.86981,4.90691 -7.88031,11.83073 -7.32811,18.72195 0.2761,3.44561 1.4308,6.83131 3.40941,9.66562 0.4416,0.6327 0.9272,1.23531 1.4469,1.80631 -2.88241,1.0087 -5.86691,1.7268 -8.89382,2.1312 -2.59881,-4.19931 -4.10001,-9.14872 -4.10001,-14.45003 0,-15.18784 12.31223,-27.50007 27.50007,-27.50007 z m 0.175,5.55631 c 1.9331,0.002 3.87941,0.5878 5.42191,1.75311 1.3897,1.0498 2.4194,2.5434 3.0031,4.18441 0.58371,1.6409 0.73351,3.4228 0.53441,5.15311 -0.39831,3.46051 -2.14411,6.63401 -4.25311,9.40622 -3.73451,4.90861 -8.69823,8.83742 -14.21884,11.58753 -0.5651,0.2815 -1.1391,0.5491 -1.7156,0.8063 -1.20131,-1.0512 -2.23081,-2.29801 -3.01561,-3.68751 -1.6399,-2.9035 -2.1807,-6.35251 -1.8625,-9.67192 0.3181,-3.31941 1.4572,-6.51852 2.9875,-9.48123 1.77421,-3.4352 4.19261,-6.68901 7.57812,-8.55631 1.69271,-0.93361 3.60751,-1.49641 5.54062,-1.49371 z m 27.07816,18.26255 c 0.1611,1.2042 0.2469,2.43291 0.2469,3.68121 0,15.18783 -12.31223,27.50006 -27.50006,27.50006 -8.52962,0 -16.15284,-3.88301 -21.19695,-9.97812 3.1134,-0.7071 6.15631,-1.72281 9.07501,-3.01561 1.27641,0.972 2.68601,1.76921 4.18442,2.34371 4.31511,1.6543 9.21422,1.4149 13.58133,-0.0969 4.36701,-1.51181 8.23962,-4.22531 11.61563,-7.38122 4.02161,-3.75951 7.41242,-8.19072 9.99372,-13.05313 z"
   style="fill:#737373;fill-opacity:1;fill-rule:nonzero;stroke-width:0.1"
   id="path2" />
    </g>
</svg>
