<?xml version="1.0" encoding="UTF-8" standalone="no"?>
<svg
   width="128"
   viewBox="0 0 128 128"
   version="1.1"
   height="128"
   id="svg225"
   sodipodi:docname="os_mac.svg"
   inkscape:export-filename="/Users/matt/p/dualboot/themes/grey-apple/icons/os_mac.png"
   inkscape:export-xdpi="72.279999"
   inkscape:export-ydpi="72.279999"
   inkscape:version="1.1.1 (c3084ef, 2021-09-22)"
   xmlns:inkscape="http://www.inkscape.org/namespaces/inkscape"
   xmlns:sodipodi="http://sodipodi.sourceforge.net/DTD/sodipodi-0.dtd"
   xmlns="http://www.w3.org/2000/svg"
   xmlns:svg="http://www.w3.org/2000/svg">
  <defs
     id="defs229" />
  <sodipodi:namedview
     id="namedview227"
     pagecolor="#ffffff"
     bordercolor="#111111"
     borderopacity="1"
     inkscape:pageshadow="0"
     inkscape:pageopacity="0"
     inkscape:pagecheckerboard="1"
     showgrid="false"
     inkscape:zoom="1.6106958"
     inkscape:cx="24.213138"
     inkscape:cy="108.02785"
     inkscape:window-width="1280"
     inkscape:window-height="800"
     inkscape:window-x="0"
     inkscape:window-y="0"
     inkscape:window-maximized="0"
     inkscape:current-layer="svg225"
     width="128px" />
  <path
     d="m 96.280502,86.344282 c -1.209838,2.79499 -2.641885,5.367746 -4.301104,7.733117 -2.261661,3.224577 -4.113452,5.456612 -5.540581,6.696081 -2.212267,2.03451 -4.582569,3.07646 -7.120769,3.13571 -1.822161,0 -4.01962,-0.5185 -6.577568,-1.57032 -2.566343,-1.04689 -4.924792,-1.56539 -7.08127,-1.56539 -2.261658,0 -4.687265,0.5185 -7.281755,1.56539 -2.59844,1.05182 -4.691709,1.59995 -6.292155,1.65427 -2.434,0.10369 -4.8601,-0.96787 -7.281755,-3.21966 -1.545632,-1.348104 -3.478908,-3.659145 -5.794887,-6.933122 -2.484863,-3.496191 -4.527764,-7.550391 -6.128209,-12.172477 -1.714023,-4.992437 -2.573256,-9.826861 -2.573256,-14.507209 0,-5.361321 1.158483,-9.985378 3.478908,-13.860323 1.823648,-3.112499 4.249747,-5.567733 7.286199,-7.370147 3.036451,-1.802415 6.31734,-2.720906 9.850567,-2.779669 1.933274,0 4.468506,0.598006 7.619028,1.773279 3.141634,1.179224 5.158857,1.777231 6.043275,1.777231 0.661213,0 2.902134,-0.699239 6.701029,-2.093271 3.592487,-1.2928 6.624495,-1.828092 9.10837,-1.617235 6.730657,0.543194 11.787294,3.196447 15.150157,7.976549 -6.019573,3.647298 -8.99726,8.755785 -8.937999,15.309167 0.05431,5.10454 1.906103,9.352312 5.545512,12.725047 1.649332,1.565382 3.491248,2.775222 5.540568,3.634457 -0.444425,1.288849 -0.913549,2.523383 -1.412305,3.708525 z M 80.843938,25.600445 c 0,4.000917 -1.461685,7.736558 -4.375174,11.19423 -3.515946,4.110494 -7.768657,6.48573 -12.38037,6.110926 -0.05876,-0.479985 -0.09284,-0.985155 -0.09284,-1.516003 0,-3.840871 1.672048,-7.951364 4.641341,-11.312251 1.482424,-1.701676 3.367799,-3.116597 5.654151,-4.245304 2.281408,-1.111867 4.43937,-1.726762 6.468934,-1.832043 0.05925,0.534848 0.08396,1.069745 0.08396,1.600396 z"
     id="path223"
     style="fill:#737373;fill-opacity:1;stroke-width:0.493808" />
</svg>
