<?xml version="1.0" encoding="UTF-8" standalone="no"?>
<svg
   width="170px"
   viewBox="0 0 170 170"
   version="1.1"
   height="170px"
   id="svg225"
   sodipodi:docname="os_mac.svg"
   inkscape:export-filename="/Users/matt/Downloads/linux-dual-boot/themes/refind-theme-grey/icons/os_mac.png"
   inkscape:export-xdpi="72.279999"
   inkscape:export-ydpi="72.279999"
   inkscape:version="1.1.1 (c3084ef, 2021-09-22)"
   xmlns:inkscape="http://www.inkscape.org/namespaces/inkscape"
   xmlns:sodipodi="http://sodipodi.sourceforge.net/DTD/sodipodi-0.dtd"
   xmlns="http://www.w3.org/2000/svg"
   xmlns:svg="http://www.w3.org/2000/svg">
  <defs
     id="defs229" />
  <sodipodi:namedview
     id="namedview227"
     pagecolor="#ffffff"
     bordercolor="#111111"
     borderopacity="1"
     inkscape:pageshadow="0"
     inkscape:pageopacity="0"
     inkscape:pagecheckerboard="1"
     showgrid="false"
     inkscape:zoom="4.855194"
     inkscape:cx="84.342664"
     inkscape:cy="49.53458"
     inkscape:window-width="1280"
     inkscape:window-height="800"
     inkscape:window-x="0"
     inkscape:window-y="0"
     inkscape:window-maximized="0"
     inkscape:current-layer="svg225" />
  <path
     d="m 153.50051,132.61763 c -2.56732,5.93107 -5.60619,11.39057 -9.12712,16.40997 -4.79933,6.8427 -8.7289,11.57916 -11.75732,14.20937 -4.69453,4.3173 -9.72441,6.52836 -15.11056,6.65409 -3.8667,0 -8.5298,-1.10028 -13.95787,-3.33228 -5.445882,-2.22153 -10.450603,-3.32181 -15.026735,-3.32181 -4.799331,0 -9.946564,1.10028 -15.452175,3.32181 -5.513992,2.232 -9.955994,3.39516 -13.352204,3.51043 -5.165045,0.22004 -10.313325,-2.05387 -15.452174,-6.83224 -3.279893,-2.86074 -7.382381,-7.76486 -12.296982,-14.71237 -5.272977,-7.41906 -9.608095,-16.02223 -13.004303,-25.83048 -3.637224,-10.59415 -5.460551,-20.85299 -5.460551,-30.784877 0,-11.376935 2.458348,-21.189369 7.38238,-29.412155 3.869854,-6.604847 9.018133,-11.814952 15.461605,-15.639747 6.443471,-3.824795 13.405647,-5.77387 20.903295,-5.898568 4.102486,0 9.482349,1.268993 16.167883,3.762969 6.666671,2.50236 10.947299,3.771354 12.824068,3.771354 1.403122,0 6.158445,-1.483812 14.219853,-4.442003 7.6234,-2.743374 14.05744,-3.879286 19.32832,-3.431837 14.28273,1.152678 25.01311,6.782987 32.14924,16.926554 -12.77377,7.739711 -19.09254,18.580125 -18.96679,32.486662 0.11526,10.832038 4.04484,19.845978 11.7678,27.003058 3.49995,3.3218 7.40857,5.88913 11.75731,7.71246 -0.94309,2.73499 -1.93859,5.35472 -2.99697,7.86964 z M 120.7435,3.7167883 c 0,8.4901037 -3.10176,16.4172817 -9.28429,23.7546017 -7.46098,8.72263 -16.485403,13.762977 -26.27164,12.967629 -0.124699,-1.018549 -0.197004,-2.09054 -0.197004,-3.21702 0,-8.150482 3.548153,-16.873112 9.849111,-24.005047 3.145763,-3.6110254 7.146603,-6.6135432 11.998333,-9.0087038 4.84124,-2.3594272 9.42052,-3.66425903 13.72734,-3.88766903 0.12575,1.13496893 0.17815,2.27004243 0.17815,3.39610433 z"
     id="path223"
     style="fill:#737373;fill-opacity:1;stroke-width:1.04788" />
</svg>
