<?xml version="1.0" encoding="UTF-8" standalone="no"?>
<!-- Generator: Adobe Illustrator 16.0.0, SVG Export Plug-In . SVG Version: 6.00 Build 0)  -->

<svg
   version="1.1"
   id="Capa_1"
   x="0px"
   y="0px"
   width="612px"
   height="612px"
   viewBox="0 0 612 612"
   style="enable-background:new 0 0 612 612;"
   xml:space="preserve"
   sodipodi:docname="os_unknown.svg"
   inkscape:version="1.1.1 (c3084ef, 2021-09-22)"
   inkscape:export-filename="/Users/matt/Downloads/linux-dual-boot/themes/refind-theme-grey/icons/os_unknown.png"
   inkscape:export-xdpi="10.04"
   inkscape:export-ydpi="10.04"
   xmlns:inkscape="http://www.inkscape.org/namespaces/inkscape"
   xmlns:sodipodi="http://sodipodi.sourceforge.net/DTD/sodipodi-0.dtd"
   xmlns="http://www.w3.org/2000/svg"
   xmlns:svg="http://www.w3.org/2000/svg"><defs
   id="defs1463" /><sodipodi:namedview
   id="namedview1461"
   pagecolor="#ffffff"
   bordercolor="#666666"
   borderopacity="1.0"
   inkscape:pageshadow="2"
   inkscape:pageopacity="0.0"
   inkscape:pagecheckerboard="0"
   showgrid="false"
   inkscape:zoom="0.89869281"
   inkscape:cx="99.032727"
   inkscape:cy="306"
   inkscape:window-width="1280"
   inkscape:window-height="774"
   inkscape:window-x="0"
   inkscape:window-y="26"
   inkscape:window-maximized="0"
   inkscape:current-layer="Capa_1" />
<g
   id="g1428"
   style="fill:#737373;fill-opacity:1">
	<g
   id="g1426"
   style="fill:#737373;fill-opacity:1">
		<g
   id="g1424"
   style="fill:#737373;fill-opacity:1">
			<path
   d="M306.022,612v-13.984L306,612C137.27,612,0,474.725,0,305.995C0,137.27,137.27,0,306,0c168.73,0,306,137.27,306,305.995     C612,474.725,474.735,612,306.022,612z M306,27.97c-153.308,0-278.03,124.723-278.03,278.025     C27.97,459.302,152.692,584.03,306,584.03h0.022c153.29,0,278.008-124.729,278.008-278.036     C584.03,152.692,459.308,27.97,306,27.97z"
   id="path1416"
   style="fill:#737373;fill-opacity:1" />
			<g
   id="g1422"
   style="fill:#737373;fill-opacity:1">
				<path
   d="M306,370.409c-7.725,0-13.985-6.26-13.985-13.985v-59.195c0-7.725,6.26-13.985,13.985-13.985      c30.951,0,56.13-25.178,56.13-56.129c0-30.957-25.179-56.146-56.13-56.146s-56.135,25.189-56.135,56.146      c0,7.725-6.26,13.985-13.985,13.985s-13.985-6.26-13.985-13.985c0-46.379,37.731-84.116,84.105-84.116s84.1,37.737,84.1,84.116      c0,41.608-30.375,76.257-70.114,82.936v46.374C319.984,364.149,313.726,370.409,306,370.409z"
   id="path1418"
   style="fill:#737373;fill-opacity:1" />
				<circle
   cx="305.995"
   cy="433.743"
   r="23.03"
   id="circle1420"
   style="fill:#737373;fill-opacity:1" />
			</g>
		</g>
	</g>
</g>
<g
   id="g1430">
</g>
<g
   id="g1432">
</g>
<g
   id="g1434">
</g>
<g
   id="g1436">
</g>
<g
   id="g1438">
</g>
<g
   id="g1440">
</g>
<g
   id="g1442">
</g>
<g
   id="g1444">
</g>
<g
   id="g1446">
</g>
<g
   id="g1448">
</g>
<g
   id="g1450">
</g>
<g
   id="g1452">
</g>
<g
   id="g1454">
</g>
<g
   id="g1456">
</g>
<g
   id="g1458">
</g>
</svg>
