<?xml version="1.0" encoding="UTF-8" standalone="no"?>
<!-- Generator: Adobe Illustrator 16.0.0, SVG Export Plug-In . SVG Version: 6.00 Build 0)  -->

<svg
   version="1.1"
   id="Capa_1"
   x="0px"
   y="0px"
   width="128"
   height="128"
   viewBox="0 0 128 128"
   xml:space="preserve"
   sodipodi:docname="os_unknown.svg"
   inkscape:version="1.1.1 (c3084ef, 2021-09-22)"
   inkscape:export-filename="/Users/matt/Downloads/linux-dual-boot/themes/refind-theme-grey/icons/os_unknown.png"
   inkscape:export-xdpi="10.04"
   inkscape:export-ydpi="10.04"
   xmlns:inkscape="http://www.inkscape.org/namespaces/inkscape"
   xmlns:sodipodi="http://sodipodi.sourceforge.net/DTD/sodipodi-0.dtd"
   xmlns="http://www.w3.org/2000/svg"
   xmlns:svg="http://www.w3.org/2000/svg"><defs
   id="defs1463" /><sodipodi:namedview
   id="namedview1461"
   pagecolor="#ffffff"
   bordercolor="#666666"
   borderopacity="1.0"
   inkscape:pageshadow="2"
   inkscape:pageopacity="0.0"
   inkscape:pagecheckerboard="0"
   showgrid="false"
   inkscape:zoom="0.89869281"
   inkscape:cx="99.032727"
   inkscape:cy="306"
   inkscape:window-width="1280"
   inkscape:window-height="774"
   inkscape:window-x="0"
   inkscape:window-y="26"
   inkscape:window-maximized="0"
   inkscape:current-layer="Capa_1" />
<g
   id="g1428"
   style="fill:#737373;fill-opacity:1"
   transform="matrix(0.13071895,0,0,0.13071895,24.000001,24.000001)">
	<g
   id="g1426"
   style="fill:#737373;fill-opacity:1">
		<g
   id="g1424"
   style="fill:#737373;fill-opacity:1">
			<path
   d="M 306.022,612 V 598.016 L 306,612 C 137.27,612 0,474.725 0,305.995 0,137.27 137.27,0 306,0 474.73,0 612,137.27 612,305.995 612,474.725 474.735,612 306.022,612 Z M 306,27.97 C 152.692,27.97 27.97,152.693 27.97,305.995 27.97,459.302 152.692,584.03 306,584.03 h 0.022 C 459.312,584.03 584.03,459.301 584.03,305.994 584.03,152.692 459.308,27.97 306,27.97 Z"
   id="path1416"
   style="fill:#737373;fill-opacity:1" />
			<g
   id="g1422"
   style="fill:#737373;fill-opacity:1">
				<path
   d="m 306,370.409 c -7.725,0 -13.985,-6.26 -13.985,-13.985 v -59.195 c 0,-7.725 6.26,-13.985 13.985,-13.985 30.951,0 56.13,-25.178 56.13,-56.129 0,-30.957 -25.179,-56.146 -56.13,-56.146 -30.951,0 -56.135,25.189 -56.135,56.146 0,7.725 -6.26,13.985 -13.985,13.985 -7.725,0 -13.985,-6.26 -13.985,-13.985 0,-46.379 37.731,-84.116 84.105,-84.116 46.374,0 84.1,37.737 84.1,84.116 0,41.608 -30.375,76.257 -70.114,82.936 v 46.374 c -0.002,7.724 -6.26,13.984 -13.986,13.984 z"
   id="path1418"
   style="fill:#737373;fill-opacity:1" />
				<circle
   cx="305.995"
   cy="433.74301"
   r="23.030001"
   id="circle1420"
   style="fill:#737373;fill-opacity:1" />
			</g>
		</g>
	</g>
</g>
<g
   id="g1430"
   transform="scale(0.20915033)">
</g>
<g
   id="g1432"
   transform="scale(0.20915033)">
</g>
<g
   id="g1434"
   transform="scale(0.20915033)">
</g>
<g
   id="g1436"
   transform="scale(0.20915033)">
</g>
<g
   id="g1438"
   transform="scale(0.20915033)">
</g>
<g
   id="g1440"
   transform="scale(0.20915033)">
</g>
<g
   id="g1442"
   transform="scale(0.20915033)">
</g>
<g
   id="g1444"
   transform="scale(0.20915033)">
</g>
<g
   id="g1446"
   transform="scale(0.20915033)">
</g>
<g
   id="g1448"
   transform="scale(0.20915033)">
</g>
<g
   id="g1450"
   transform="scale(0.20915033)">
</g>
<g
   id="g1452"
   transform="scale(0.20915033)">
</g>
<g
   id="g1454"
   transform="scale(0.20915033)">
</g>
<g
   id="g1456"
   transform="scale(0.20915033)">
</g>
<g
   id="g1458"
   transform="scale(0.20915033)">
</g>
</svg>
