<?xml version="1.0" encoding="UTF-8" standalone="no"?>
<svg
   version="1.1"
   width="128"
   height="128"
   viewBox="0 0 42.666666 42.666666"
   xml:space="preserve"
   id="svg18834"
   sodipodi:docname="os_void.svg"
   inkscape:export-filename="/Users/matt/p/dualboot/themes/grey-apple/icons/os_void.png"
   inkscape:export-xdpi="96"
   inkscape:export-ydpi="96"
   inkscape:version="1.1.1 (c3084ef, 2021-09-22)"
   xmlns:inkscape="http://www.inkscape.org/namespaces/inkscape"
   xmlns:sodipodi="http://sodipodi.sourceforge.net/DTD/sodipodi-0.dtd"
   xmlns="http://www.w3.org/2000/svg"
   xmlns:svg="http://www.w3.org/2000/svg"><sodipodi:namedview
   id="namedview18836"
   pagecolor="#ffffff"
   bordercolor="#111111"
   borderopacity="1"
   inkscape:pageshadow="0"
   inkscape:pageopacity="0"
   inkscape:pagecheckerboard="1"
   showgrid="false"
   inkscape:zoom="1.1827925"
   inkscape:cx="75.245656"
   inkscape:cy="142.03674"
   inkscape:window-width="1280"
   inkscape:window-height="800"
   inkscape:window-x="0"
   inkscape:window-y="0"
   inkscape:window-maximized="0"
   inkscape:current-layer="g18830"
   width="384.00016px" />
<desc
   id="desc18814">Created with Fabric.js 3.6.3</desc>
<defs
   id="defs18816">
</defs>
<g
   transform="matrix(0.98,0,0,0.98,64.12,63.92)"
   id="g18832">
<g
   id="g18830">
		
		
		<g
   id="g527"
   transform="matrix(0.21195896,0,0,0.21195896,-43.6601,-43.45577)"><g
     transform="matrix(0.61,0,0,0.61,13.38,-13.37)"
     id="g18820"
     style="fill:#737373;fill-opacity:1">
<path
   style="opacity:1;fill:#737373;fill-opacity:1;fill-rule:nonzero;stroke:none;stroke-width:1;stroke-linecap:butt;stroke-linejoin:miter;stroke-miterlimit:4;stroke-dasharray:none;stroke-dashoffset:0"
   transform="translate(-149.95,-83.31)"
   d="M 128.01682,0 C 105.98494,0.04678314 84.523372,7.0072685 66.657757,19.900168 l 23.902685,23.902684 c 11.277448,-6.898594 24.236288,-10.559734 37.456378,-10.582214 39.77241,-7.9e-5 72.01434,32.241846 72.01426,72.014262 -0.0318,13.21538 -3.69956,26.16719 -10.60151,37.43708 l 23.94799,23.94799 c 12.8888,-17.87595 19.8404,-39.34715 19.87417,-61.38507 C 233.25173,47.115274 186.13644,0 128.01682,0 Z"
   stroke-linecap="round"
   id="path18818" />
</g><g
     transform="matrix(0.61,0,0,0.61,-13.38,13.37)"
     id="g18824"
     style="fill:#737373;fill-opacity:1">
<path
   style="opacity:1;fill:#737373;fill-opacity:1;fill-rule:nonzero;stroke:none;stroke-width:1;stroke-linecap:butt;stroke-linejoin:miter;stroke-miterlimit:4;stroke-dasharray:none;stroke-dashoffset:0"
   transform="translate(-106.08,-127.16)"
   d="m 189.37588,190.56963 -23.90269,-23.90268 c -11.27745,6.89859 -24.23629,10.55974 -37.45637,10.58221 -39.772417,8e-5 -72.014343,-32.24185 -72.014264,-72.01426 0.03183,-13.215382 3.699547,-26.167196 10.60151,-37.437081 L 42.656067,43.849832 C 29.76725,61.725769 22.815686,83.196977 22.781918,105.2349 c 0,58.11962 47.115274,105.2349 105.234902,105.2349 22.03188,-0.0468 43.49344,-7.00726 61.35906,-19.90017 z"
   stroke-linecap="round"
   id="path18822" />
</g><g
     transform="matrix(0.61,0,0,0.61,-0.01,0)"
     id="g18828"
     style="fill:#737373;fill-opacity:1">
<circle
   style="opacity:1;fill:#737373;fill-opacity:1;fill-rule:nonzero;stroke:none;stroke-width:1;stroke-linecap:butt;stroke-linejoin:miter;stroke-miterlimit:4;stroke-dasharray:none;stroke-dashoffset:0"
   cx="0"
   cy="0"
   r="33.503357"
   id="circle18826" />
</g></g>
</g>
</g>
</svg>
