<?xml version="1.0" encoding="UTF-8" standalone="no"?>
<!-- Generator: Adobe Illustrator 16.0.0, SVG Export Plug-In . SVG Version: 6.00 Build 0)  -->

<svg
   version="1.1"
   id="Capa_1"
   x="0px"
   y="0px"
   width="45.283px"
   height="45.282px"
   viewBox="0 0 45.283 45.282"
   style="enable-background:new 0 0 45.283 45.282;"
   xml:space="preserve"
   sodipodi:docname="tool_rescue.svg"
   inkscape:version="1.1.1 (c3084ef, 2021-09-22)"
   inkscape:export-filename="/Users/matt/Downloads/linux-dual-boot/themes/refind-theme-grey/icons/tool_rescue.png"
   inkscape:export-xdpi="135.67999"
   inkscape:export-ydpi="135.67999"
   xmlns:inkscape="http://www.inkscape.org/namespaces/inkscape"
   xmlns:sodipodi="http://sodipodi.sourceforge.net/DTD/sodipodi-0.dtd"
   xmlns="http://www.w3.org/2000/svg"
   xmlns:svg="http://www.w3.org/2000/svg"><defs
   id="defs1168" /><sodipodi:namedview
   id="namedview1166"
   pagecolor="#ffffff"
   bordercolor="#666666"
   borderopacity="1.0"
   inkscape:pageshadow="2"
   inkscape:pageopacity="0.0"
   inkscape:pagecheckerboard="0"
   showgrid="false"
   inkscape:zoom="12.146106"
   inkscape:cx="6.4629766"
   inkscape:cy="22.641001"
   inkscape:window-width="1280"
   inkscape:window-height="774"
   inkscape:window-x="0"
   inkscape:window-y="26"
   inkscape:window-maximized="0"
   inkscape:current-layer="g1133" />
<g
   id="g1133">
	<path
   d="M42.072,16.846C40.123,10.31,34.964,5.148,28.428,3.199C28.324,1.436,26.863,0,25.029,0h-4.771   c-1.833,0-3.298,1.436-3.403,3.198c-6.536,1.95-11.691,7.113-13.642,13.648c-1.763,0.106-3.192,1.57-3.192,3.403v4.771   c0,1.834,1.43,3.299,3.192,3.404c1.95,6.535,7.109,11.703,13.646,13.653c0.105,1.763,1.566,3.205,3.399,3.205h4.771   c1.834,0,3.299-1.442,3.404-3.205c6.536-1.95,11.688-7.116,13.639-13.651c1.762-0.104,3.189-1.572,3.189-3.406v-4.771   C45.261,18.416,43.833,16.952,42.072,16.846z M39.07,17.145l-6.367,0.749c-1.103-2.329-2.99-4.216-5.318-5.318l0.749-6.367   C33.274,7.932,37.346,12.005,39.07,17.145z M26.798,29.653c-0.329-0.626-0.85-1.146-1.502-1.47L24.16,27.62   c-0.955-0.476-2.078-0.476-3.034,0l-1.135,0.563c-0.652,0.324-1.174,0.844-1.502,1.47c-1.178-0.7-2.165-1.687-2.864-2.864   c0.627-0.329,1.146-0.85,1.47-1.502l0.563-1.135c0.475-0.956,0.475-2.079,0-3.035l-0.563-1.135   c-0.324-0.652-0.843-1.173-1.47-1.501c0.7-1.177,1.687-2.164,2.864-2.863c0.328,0.626,0.85,1.145,1.502,1.469l1.135,0.564   c0.956,0.475,2.079,0.475,3.034,0l1.137-0.564c0.652-0.324,1.173-0.842,1.502-1.469c1.177,0.699,2.164,1.686,2.863,2.863   c-0.627,0.329-1.146,0.85-1.47,1.501l-0.563,1.135c-0.475,0.956-0.475,2.079,0,3.035l0.563,1.135   c0.323,0.652,0.843,1.173,1.47,1.502C28.962,27.967,27.975,28.953,26.798,29.653z M17.155,6.209l0.749,6.367   c-2.329,1.102-4.217,2.989-5.318,5.318l-6.367-0.749C7.941,12.005,12.014,7.932,17.155,6.209z M6.218,28.124l6.367-0.749   c1.102,2.329,2.989,4.217,5.318,5.318l-0.749,6.367C12.014,37.337,7.941,33.266,6.218,28.124z M28.132,39.061l-0.749-6.367   c2.329-1.102,4.217-2.989,5.319-5.318l6.365,0.749C37.346,33.266,33.274,37.337,28.132,39.061z"
   id="path1131"
   style="fill:#737373;fill-opacity:1" />
</g>
<g
   id="g1135">
</g>
<g
   id="g1137">
</g>
<g
   id="g1139">
</g>
<g
   id="g1141">
</g>
<g
   id="g1143">
</g>
<g
   id="g1145">
</g>
<g
   id="g1147">
</g>
<g
   id="g1149">
</g>
<g
   id="g1151">
</g>
<g
   id="g1153">
</g>
<g
   id="g1155">
</g>
<g
   id="g1157">
</g>
<g
   id="g1159">
</g>
<g
   id="g1161">
</g>
<g
   id="g1163">
</g>
</svg>
