<?xml version="1.0" encoding="UTF-8" standalone="no"?>
<!-- Generator: Adobe Illustrator 16.0.0, SVG Export Plug-In . SVG Version: 6.00 Build 0)  -->

<svg
   version="1.1"
   id="Capa_1"
   x="0px"
   y="0px"
   width="64"
   height="64"
   viewBox="0 0 63.999999 63.999998"
   xml:space="preserve"
   sodipodi:docname="tool_rescue.svg"
   inkscape:version="1.1.1 (c3084ef, 2021-09-22)"
   inkscape:export-filename="/Users/matt/Downloads/linux-dual-boot/themes/refind-theme-grey/icons/tool_rescue.png"
   inkscape:export-xdpi="135.67999"
   inkscape:export-ydpi="135.67999"
   xmlns:inkscape="http://www.inkscape.org/namespaces/inkscape"
   xmlns:sodipodi="http://sodipodi.sourceforge.net/DTD/sodipodi-0.dtd"
   xmlns="http://www.w3.org/2000/svg"
   xmlns:svg="http://www.w3.org/2000/svg"><defs
   id="defs1168" /><sodipodi:namedview
   id="namedview1166"
   pagecolor="#ffffff"
   bordercolor="#666666"
   borderopacity="1.0"
   inkscape:pageshadow="2"
   inkscape:pageopacity="0.0"
   inkscape:pagecheckerboard="0"
   showgrid="false"
   inkscape:zoom="12.146106"
   inkscape:cx="6.4218112"
   inkscape:cy="22.641001"
   inkscape:window-width="1280"
   inkscape:window-height="774"
   inkscape:window-x="0"
   inkscape:window-y="26"
   inkscape:window-maximized="0"
   inkscape:current-layer="g1133" />
<g
   id="g1133">
	<path
   d="M 49.164436,26.880968 C 47.44278,21.107372 42.885561,16.547502 37.111965,14.825847 37.020096,13.268495 35.729517,12 34.109448,12 h -4.214479 c -1.619187,0 -2.913299,1.268495 -3.006051,2.824964 -5.773596,1.722538 -10.327282,6.283291 -12.050704,12.056004 -1.557352,0.09364 -2.819663,1.386865 -2.819663,3.006051 v 4.214478 c 0,1.62007 1.263195,2.914183 2.819663,3.006935 1.722539,5.772713 6.279758,10.337882 12.054237,12.060421 C 26.985203,50.726205 28.275782,52 29.894969,52 h 4.214479 c 1.620069,0 2.914181,-1.273795 3.006934,-2.831147 5.773596,-1.722539 10.324632,-6.285941 12.048054,-12.058655 1.556469,-0.09187 2.817013,-1.388631 2.817013,-3.008701 v -4.214478 c 0,-1.619186 -1.261427,-2.912415 -2.817013,-3.006051 z M 46.512609,27.145091 40.8883,27.806722 C 39.913961,25.749393 38.247073,24.082505 36.190627,23.10905 l 0.661633,-5.62431 c 4.540435,1.522018 8.13745,5.119915 9.660349,9.660351 z M 35.6721,38.194073 c -0.290624,-0.552979 -0.75085,-1.012323 -1.326797,-1.29853 l -1.00349,-0.497327 c -0.843602,-0.420477 -1.835608,-0.420477 -2.680094,0 l -1.002605,0.497327 c -0.575947,0.286207 -1.037057,0.745551 -1.326797,1.29853 -1.04059,-0.618348 -1.91246,-1.490217 -2.529924,-2.529924 0.553863,-0.290623 1.012323,-0.75085 1.29853,-1.326796 l 0.497328,-1.002606 c 0.419592,-0.844486 0.419592,-1.836492 0,-2.680977 l -0.497328,-1.002606 c -0.286207,-0.575946 -0.744667,-1.036173 -1.29853,-1.325913 0.618348,-1.039707 1.490217,-1.911577 2.529924,-2.529041 0.28974,0.55298 0.75085,1.01144 1.326797,1.297646 l 1.002605,0.498211 c 0.844486,0.419593 1.836492,0.419593 2.680094,0 l 1.004374,-0.498211 c 0.575945,-0.286206 1.036172,-0.743783 1.326796,-1.297646 1.039706,0.617464 1.911576,1.489334 2.529039,2.529041 -0.553861,0.290623 -1.012322,0.75085 -1.298528,1.325913 l -0.497329,1.002606 c -0.419591,0.844485 -0.419591,1.836491 0,2.680977 l 0.497329,1.002606 c 0.285323,0.575946 0.744667,1.036173 1.298528,1.326796 -0.618347,1.04059 -1.490215,1.911576 -2.529922,2.529924 z m -8.518176,-20.709333 0.661631,5.62431 c -2.057329,0.973455 -3.7251,2.640343 -4.697672,4.697672 l -5.624309,-0.661631 c 1.521134,-4.540436 5.119031,-8.138333 9.66035,-9.660351 z M 17.49269,36.843426 23.117,36.181794 c 0.973455,2.05733 2.640342,3.725101 4.697672,4.697672 l -0.661631,5.62431 c -4.540436,-1.522017 -8.138333,-5.118148 -9.660351,-9.66035 z m 19.357803,9.661234 -0.661632,-5.62431 c 2.057329,-0.973455 3.7251,-2.640343 4.698555,-4.697673 l 5.622544,0.661632 c -1.52025,4.541319 -5.117265,8.13745 -9.659467,9.660351 z"
   id="path1131"
   style="fill:#737373;fill-opacity:1;stroke-width:0.883353" />
</g>
<g
   id="g1135">
</g>
<g
   id="g1137">
</g>
<g
   id="g1139">
</g>
<g
   id="g1141">
</g>
<g
   id="g1143">
</g>
<g
   id="g1145">
</g>
<g
   id="g1147">
</g>
<g
   id="g1149">
</g>
<g
   id="g1151">
</g>
<g
   id="g1153">
</g>
<g
   id="g1155">
</g>
<g
   id="g1157">
</g>
<g
   id="g1159">
</g>
<g
   id="g1161">
</g>
<g
   id="g1163">
</g>
</svg>
